<svg width="99" height="69" viewBox="0 0 99 69" fill="none" xmlns="http://www.w3.org/2000/svg">
<g clip-path="url(#clip0_22_6)">
<path d="M89 26.7812H82.2875V41.3135H76.952V27.0438L76.6939 26.7812H70.0675V22.1411L70.3256 21.8786H88.7419L89 22.1411V26.7812Z" fill="white"/>
<path d="M64.2158 26.7812V38.5996C64.2158 40.111 62.8991 41.8933 61.6894 42.6833C59.7566 43.9453 52.5646 47.9776 50.6247 48.4108C45.1768 49.6286 40.2176 46.0388 35.7654 43.2046C34.6267 42.4798 33.4498 41.8676 32.8874 40.5295C32.7734 40.2577 32.375 38.9716 32.375 38.7746V32.0334C32.8428 32.1203 34.2449 31.7872 34.4165 32.3206C34.6455 34.4201 34.1939 36.9048 34.4363 38.9535C34.6111 40.4267 36.0063 41.0131 37.0783 41.6937C39.6821 43.3457 44.8424 46.6586 47.772 46.7484C50.836 46.8419 54.7538 44.2593 57.4469 42.7445C57.9646 42.4535 58.663 42.1034 59.0523 41.6636H48.2091C45.9671 36.4305 42.2327 31.8933 36.5767 30.4639L37.0235 28.5312C41.4526 29.6838 44.7333 32.2429 47.3166 36.0055C47.7285 36.605 49.3618 39.5985 49.7054 39.704L61.548 39.738C61.8007 39.7194 61.9281 39.5662 62.0244 39.3474C62.0695 39.2445 62.3222 37.9809 62.3222 37.8993V26.7812H64.2152H64.2158Z" fill="white"/>
<path d="M15.3356 21.8786V36.4114H26.2647L26.5228 36.674V41.3135H10V22.1411L10.2581 21.8786H15.3356Z" fill="white"/>
<path d="M60.1378 22.6997C61.8695 24.3578 64.0636 20.8463 61.3658 20.1373L35.3826 20.1231C33.1197 20.3928 33.9003 23.6565 35.9396 22.971C36.9321 22.6373 36.7407 21.6876 37.1305 21.552C39.6757 20.6647 38.2542 24.2801 36.2063 24.6368C31.7616 25.4103 30.6073 18.8687 35.7337 18.3791C43.8521 18.9065 52.8511 17.6669 60.8658 18.3698C63.0002 18.5569 64.504 19.8063 64.1997 22.1258C63.8653 24.6778 60.4523 25.639 58.7888 23.6346C58.5168 23.3063 57.7716 21.866 58.184 21.6094C59.9141 21.0421 59.5173 22.1045 60.1383 22.6991L60.1378 22.6997Z" fill="white"/>
<path d="M57.8474 15.2254H38.9149V16.8014H57.8474V15.2254Z" fill="white"/>
<path d="M55.2667 29.5815V31.5093L50.5688 31.1931C50.0737 31.3463 48.7269 33.1909 48.1258 33.6116C47.9806 33.7134 47.9559 33.8556 47.6957 33.7839L46.851 31.9814C46.9543 31.5624 48.6785 30.6997 48.3817 30.285C47.8226 30.2784 44.7677 28.314 44.7704 28.0935L45.8903 26.6001C48.6328 28.7144 51.8242 29.6116 55.2673 29.581L55.2667 29.5815Z" fill="white"/>
<path d="M51.135 21.7035V23.8047H44.6806C44.1026 23.8047 41.9596 23.2319 41.3778 22.9623C40.8929 22.738 40.1886 22.3091 40.1198 21.7035H51.135Z" fill="white"/>
<path d="M56.484 27.9918C57.1587 25.4721 55.4044 23.4458 52.8554 23.8058L52.8463 21.7867C56.4614 21.3189 59.6673 24.8567 58.1996 28.459L56.4845 27.9923L56.484 27.9918Z" fill="white"/>
<path d="M32.8449 26.8206C35.8702 26.1893 35.8686 31.2248 32.8449 30.5935C30.9132 30.1898 30.9067 27.2248 32.8449 26.8206Z" fill="white"/>
<path d="M48.1645 10.0088C50.3516 9.80142 50.9661 13.3162 48.9478 13.7867C45.8408 14.5109 45.6811 10.244 48.1645 10.0088Z" fill="white"/>
<path d="M43.1548 35.8983C43.5644 35.826 44.3252 37.2631 44.2241 37.6893L40.7219 41.4863L39.2617 40.1762L43.1542 35.8988L43.1548 35.8983Z" fill="white"/>
<path d="M50.7893 54.2702L50.792 53.3955C51.1226 53.3414 51.2527 53.5334 51.3065 53.8332C51.4404 54.5788 51.3791 57.4847 51.0344 58.1067C50.2403 59.5405 47.3021 59.1991 47.3494 57.4223L47.8661 57.5432C48.5866 59.3725 51.2818 58.5525 50.6167 56.3709C49.5769 57.616 47.2355 57.3342 47.0365 55.5367C46.7892 53.3069 49.5468 52.6433 50.7893 54.2697V54.2702ZM48.5038 53.9584C47.6785 54.1477 47.5855 54.8479 47.6844 55.5919C47.886 57.1143 50.3903 56.9349 50.6135 55.7544C50.914 54.1652 49.9312 53.6313 48.5038 53.9584Z" fill="white"/>
<path d="M29.7669 52.0235L32.0299 57.4212C31.1997 57.7183 31.0175 55.9152 30.7105 55.8397L27.7099 55.9551L27.1873 57.3972L26.5239 57.4212L29.0481 52.023H29.7669V52.0235ZM28.0718 55.3211H30.4815L29.361 52.6937C29.004 52.6182 29.1228 52.8397 29.0277 53.046C28.6847 53.7867 28.3927 54.5711 28.0723 55.3211H28.0718Z" fill="white"/>
<path d="M60.7733 51.994V57.4218L60.2577 57.4229L60.1717 56.547C56.2291 60.5372 54.8565 52.0771 59.2329 53.4737C59.7722 53.6455 59.7179 54.0602 60.0829 54.2691L60.0856 51.9929H60.7733V51.994ZM57.3797 56.6723C59.1001 58.4229 61.369 55.1543 59.4915 54.0864C57.6265 53.0257 56.1603 55.4316 57.3797 56.6723Z" fill="white"/>
<path d="M36.6778 51.994V57.4218L36.1622 57.4229L36.1595 56.547C35.8837 56.5842 35.9224 56.9327 35.6412 57.1554C34.2557 58.2527 32.3444 57.2216 32.3912 55.4245C32.4498 53.1871 34.8444 52.703 36.1595 54.2702L36.1622 51.9934L36.6778 51.9945V51.994ZM33.874 53.9584C32.7148 54.2369 32.6885 56.6067 33.9143 56.9929C36.6622 57.8589 37.1617 53.1679 33.874 53.9584Z" fill="white"/>
<path d="M54.9216 56.7216C54.3517 57.7763 53.1871 57.814 52.2146 57.2019C51.3156 55.204 53.7958 55.5728 55.0065 55.3156C55.2506 55.2637 55.2872 55.453 55.2716 55.0553C55.2087 53.4469 52.614 53.4311 52.6791 54.9688H52.1689C51.8995 53.3539 54.563 52.8911 55.3839 53.7987C55.4458 53.8665 55.7823 54.4902 55.7823 54.5323V57.4212L55.2667 57.4229L55.0942 56.546C55.1678 56.3753 55.1759 55.9021 55.2657 55.6718L52.7237 56.0629C52.0796 57.3753 54.2732 57.2965 54.9221 56.721L54.9216 56.7216Z" fill="white"/>
<path d="M54.9216 56.7216C54.9506 56.6674 54.9022 56.5208 55.0936 56.5465C54.9969 56.7708 54.9549 56.692 54.9216 56.7216Z" fill="white"/>
<path d="M62.9642 53.4355C66.7502 52.6411 66.6293 58.0454 63.3136 57.5591C60.9469 57.2117 60.9039 53.8676 62.9642 53.4355ZM62.9615 53.959C61.6496 54.2741 61.6711 56.8315 63.2824 57.0662C66.0846 57.4743 65.9911 53.2309 62.9615 53.959Z" fill="white"/>
<path d="M43.6881 53.4371C47.3279 52.7516 47.2623 57.6187 44.3365 57.6105C41.659 57.6029 41.459 53.8567 43.6881 53.4371ZM43.6843 53.9584C42.3134 54.2768 42.2945 56.7095 43.8607 57.0317C46.5903 57.5936 46.8505 53.2232 43.6843 53.9584Z" fill="white"/>
<path d="M70.067 54.7949C69.3137 54.9978 69.6245 54.3446 69.2621 54.0826C68.6949 53.6729 67.7621 53.7358 67.139 54.0044C66.0949 55.8397 69.6782 54.7938 70.0369 55.9683C70.6654 58.029 66.3954 58.2183 66.4551 56.1975C67.2083 55.9814 66.9078 56.6838 67.2567 56.9125C68.3336 57.6171 70.4906 56.6291 69.2643 55.8764C68.3632 55.3238 66.1605 56.1214 66.4519 54.192C66.6384 52.9568 70.2971 53.0531 70.068 54.7954L70.067 54.7949Z" fill="white"/>
<path d="M39.4337 56.8966C39.6359 57.0536 40.873 53.9311 41.0171 53.6953C41.4504 52.9874 41.8332 53.2456 41.4746 54.1608C41.273 54.6756 40.2155 56.988 39.966 57.314C39.8165 57.5093 39.2192 57.5098 39.0697 57.314C38.9122 57.1078 37.2138 53.5432 37.3676 53.3966C37.7337 53.3507 37.8256 53.3753 38.0353 53.6783C38.3138 54.0804 39.2805 56.7779 39.4343 56.8972L39.4337 56.8966Z" fill="white"/>
</g>
<defs>
<clipPath id="clip0_22_6">
<rect width="79" height="49" fill="white" transform="translate(10 10)"/>
</clipPath>
</defs>
</svg>
